<?xml version="1.0" encoding="utf-8"?>
<!-- Generator: Adobe Illustrator 26.0.3, SVG Export Plug-In . SVG Version: 6.00 Build 0)  -->
<svg version="1.1"
	 id="svg6" xmlns:cc="http://creativecommons.org/ns#" xmlns:dc="http://purl.org/dc/elements/1.1/" xmlns:inkscape="http://www.inkscape.org/namespaces/inkscape" xmlns:rdf="http://www.w3.org/1999/02/22-rdf-syntax-ns#" xmlns:sodipodi="http://sodipodi.sourceforge.net/DTD/sodipodi-0.dtd" xmlns:svg="http://www.w3.org/2000/svg"
	 xmlns="http://www.w3.org/2000/svg" xmlns:xlink="http://www.w3.org/1999/xlink" x="0px" y="0px" viewBox="0 0 172 116"
	 style="enable-background:new 0 0 172 116;" xml:space="preserve">
<style type="text/css">
	.st0{fill:#FF0000;}
	.st1{fill:#FFFFFF;}
</style>
<g>
	<rect class="st0" width="172" height="116"/>
	<g>
		<polygon class="st1" points="86,22.5 86,54.3 70.1,22.5 54.3,22.5 54.3,93.5 70.1,93.5 70.1,61.7 86,93.5 101.9,93.5 101.9,22.5 
					"/>
		<polygon class="st1" points="50.6,36.5 50.6,22.5 34.7,22.5 18.9,22.5 18.9,93.5 34.7,93.5 34.7,64.5 50.6,64.5 50.6,50.5 
			34.7,50.5 34.7,36.5 		"/>
		<polygon class="st1" points="137.3,22.5 137.3,54.3 121.4,22.5 105.5,22.5 105.5,93.5 121.4,93.5 121.4,61.7 137.3,93.5 
			153.1,93.5 153.1,22.5 		"/>
	</g>
</g>
</svg>
